<svg xmlns="http://www.w3.org/2000/svg" width="14" height="14" viewBox="1575 18 14 14"><path d="M1582.016 21.39c-2 0-3.594 1.626-3.594 3.594 0 2 1.594 3.594 3.594 3.594a3.594 3.594 0 0 0 3.593-3.594c0-1.968-1.625-3.593-3.593-3.593Zm0 5.938a2.34 2.34 0 0 1-2.344-2.344c0-1.28 1.031-2.312 2.344-2.312a2.307 2.307 0 0 1 2.312 2.312c0 1.313-1.031 2.344-2.312 2.344Zm4.562-6.062a.84.84 0 0 0-.844-.844.84.84 0 0 0-.843.844.84.84 0 0 0 .843.843.84.84 0 0 0 .844-.843Zm2.375.843c-.062-1.125-.312-2.125-1.125-2.937-.812-.813-1.812-1.063-2.937-1.125-1.157-.063-4.625-.063-5.782 0-1.125.062-2.093.312-2.937 1.125-.813.812-1.063 1.812-1.125 2.937-.063 1.157-.063 4.625 0 5.782.062 1.125.312 2.093 1.125 2.937.844.813 1.812 1.063 2.937 1.125 1.157.063 4.625.063 5.782 0 1.125-.062 2.125-.312 2.937-1.125.813-.844 1.063-1.812 1.125-2.937.063-1.157.063-4.625 0-5.782Zm-1.5 7c-.219.625-.719 1.094-1.312 1.344-.938.375-3.125.281-4.125.281-1.032 0-3.22.094-4.125-.28a2.37 2.37 0 0 1-1.344-1.345c-.375-.906-.281-3.093-.281-4.125 0-1-.094-3.187.28-4.125a2.41 2.41 0 0 1 1.345-1.312c.906-.375 3.093-.281 4.125-.281 1 0 3.187-.094 4.125.28.593.22 1.062.72 1.312 1.313.375.938.281 3.125.281 4.125 0 1.032.094 3.22-.28 4.125Z" fill="#191919" fill-rule="evenodd" data-name=""/></svg>