<svg xmlns="http://www.w3.org/2000/svg" width="14" height="14" viewBox="1606 18 14 14"><path d="M1619 18h-12.031c-.532 0-.969.469-.969 1.031V31c0 .563.438 1 .969 1H1619c.531 0 1-.438 1-1V19.031c0-.562-.469-1.031-1-1.031Zm-8.781 12h-2.063v-6.656h2.063V30Zm-1.032-7.594c-.687 0-1.218-.531-1.218-1.187a1.22 1.22 0 0 1 1.218-1.219c.657 0 1.188.563 1.188 1.219 0 .656-.531 1.187-1.188 1.187ZM1618 30h-2.094v-3.25c0-.75 0-1.75-1.062-1.75-1.094 0-1.25.844-1.25 1.719V30h-2.063v-6.656h1.969v.906h.031c.282-.531.969-1.094 1.969-1.094 2.094 0 2.5 1.407 2.5 3.188V30Z" fill="#191919" fill-rule="evenodd" data-name=""/></svg>