<svg xmlns="http://www.w3.org/2000/svg" width="17.917" height="16.25" viewBox="719.375 16 17.917 16.25"><path d="M732.068 21.986a.625.625 0 0 1 .864.902l-.864-.902Zm3.967.459a.625.625 0 0 1 1.25-.016l-1.25.016Zm-5.194-6.439a.625.625 0 1 1-.015 1.25l.015-1.25Zm-8.842 5.168-1.608-1.607.884-.884 1.608 1.607-.884.884Zm.884-.883c1.401 1.4 2.409 2.407 3.278 3.07.854.652 1.501.913 2.172.913v1.25c-1.054 0-1.965-.433-2.93-1.17-.952-.726-2.028-1.803-3.404-3.18l.884-.883ZM727.5 16h1.667v1.25H727.5V16Zm1.667 16.25H727.5V31h1.667v1.25Zm-1.667 0c-1.548 0-2.76 0-3.72-.103-.97-.105-1.758-.324-2.43-.812l.735-1.011c.423.307.965.486 1.83.58.877.095 2.009.096 3.585.096v1.25Zm-6.875-8.125c0 1.576 0 2.708.096 3.585.094.865.273 1.407.58 1.83l-1.01.735c-.49-.672-.708-1.46-.813-2.43-.104-.96-.103-2.171-.103-3.72h1.25Zm.725 7.21a4.791 4.791 0 0 1-1.06-1.06l1.011-.735c.219.3.483.565.784.784l-.735 1.01Zm15.942-7.21c0 1.549 0 2.76-.103 3.72-.106.97-.324 1.758-.812 2.43l-1.012-.735c.308-.423.487-.965.58-1.83.096-.877.097-2.009.097-3.585h1.25ZM729.167 31c1.576 0 2.708 0 3.585-.096.865-.094 1.406-.273 1.83-.58l.734 1.01c-.672.49-1.458.708-2.43.813-.96.104-2.17.103-3.72.103V31Zm7.21-.725a4.79 4.79 0 0 1-1.06 1.06l-.735-1.011c.3-.219.565-.483.783-.784l1.011.735ZM727.5 17.25c-1.576 0-2.708 0-3.585.096-.865.094-1.407.273-1.83.58l-.735-1.01c.672-.49 1.46-.708 2.43-.813.96-.104 2.172-.103 3.72-.103v1.25Zm-5.415.676c-.3.219-.565.483-.784.784l-1.01-.735a4.792 4.792 0 0 1 1.06-1.06l.734 1.011Zm10.847 4.962c-1.693 1.623-2.99 2.636-4.599 2.636v-1.25c1.045 0 2.003-.628 3.735-2.288l.864.902Zm3.11 1.237c0-.623 0-1.178-.007-1.68l1.25-.016c.007.511.007 1.075.007 1.696h-1.25ZM729.167 16c.612 0 1.168 0 1.674.006l-.015 1.25c-.497-.006-1.045-.006-1.66-.006V16Zm8.125 2.292A2.292 2.292 0 0 1 735 20.583v-1.25c.575 0 1.042-.466 1.042-1.041h1.25ZM735 20.583a2.292 2.292 0 0 1-2.292-2.291h1.25c0 .575.467 1.041 1.042 1.041v1.25Zm-2.292-2.291A2.292 2.292 0 0 1 735 16v1.25c-.575 0-1.042.466-1.042 1.042h-1.25ZM735 16a2.292 2.292 0 0 1 2.292 2.292h-1.25c0-.576-.467-1.042-1.042-1.042V16Zm-15.625 8.125c0-1.345 0-2.432.066-3.317.067-.887.205-1.63.513-2.27l1.127.542c-.21.434-.33.996-.393 1.822-.063.827-.063 1.86-.063 3.223h-1.25Zm.58-5.587c.095-.199.206-.385.335-.563l1.011.735a2.395 2.395 0 0 0-.22.37l-1.127-.542Zm1.32.145-.316-.316-.883.884.315.316.884-.884Z" fill="#191919" fill-rule="evenodd" data-name="https://www.flaticon.com/free-icon/message_7831721?related_id=7831721&amp;origin=search"/></svg>