<svg xmlns="http://www.w3.org/2000/svg" width="18.75" height="18.75" viewBox="525 16 18.75 18.75"><path d="M543.568 29.962c.105.184.167.39.182.6 0 1.087-4.023 4.188-4.7 4.188-.04 0-4.043-.057-9.058-4.987-4.935-5.02-4.992-9.023-4.992-9.062 0-.679 3.101-4.701 4.187-4.701a1.43 1.43 0 0 1 1.067.603c.027.033 2.707 3.78 2.53 4.791-.086.49-.418.769-1.082 1.325-.11.092-.367.31-.55.477a8.563 8.563 0 0 0 5.403 5.403c.166-.183.383-.44.473-.548.56-.666.838-1 1.326-1.085 1.012-.163 4.76 2.503 4.793 2.53.173.122.317.281.421.466Zm-4.588 3.533a16.897 16.897 0 0 0 3.476-2.942c-.024-.022-.061-.056-.113-.1a21.966 21.966 0 0 0-3.797-2.236c-.1.089-.362.4-.558.634a6.297 6.297 0 0 1-.892.949.62.62 0 0 1-.47.107 7.118 7.118 0 0 1-1.65-.604 9.819 9.819 0 0 1-4.53-4.53 7.136 7.136 0 0 1-.603-1.65.625.625 0 0 1 .107-.47c.283-.327.6-.625.945-.888.222-.177.434-.368.635-.57a22.12 22.12 0 0 0-2.234-3.789 2.486 2.486 0 0 0-.1-.111 16.909 16.909 0 0 0-2.942 3.476c.043.521.475 3.89 4.621 8.11 4.2 4.126 7.563 4.569 8.105 4.615Z" fill="#191919" fill-rule="evenodd" data-name="https://www.flaticon.com/free-icon/telephone-call_3059457?related_id=3059457"/></svg>