<svg xmlns="http://www.w3.org/2000/svg" width="15.969" height="12.969" viewBox="1542.031 18 15.969 12.969"><path d="M1556.375 21.219A6.952 6.952 0 0 0 1558 19.53a6.151 6.151 0 0 1-1.875.5 3.206 3.206 0 0 0 1.437-1.812 6.93 6.93 0 0 1-2.062.812 3.282 3.282 0 0 0-2.406-1.031 3.28 3.28 0 0 0-3.282 3.281c0 .25.032.5.094.75a9.52 9.52 0 0 1-6.781-3.437 3.192 3.192 0 0 0-.438 1.656c0 1.125.563 2.125 1.47 2.719-.532-.032-1.063-.157-1.5-.407v.032a3.285 3.285 0 0 0 2.624 3.218c-.25.063-.562.125-.843.125-.22 0-.407-.03-.626-.062a3.265 3.265 0 0 0 3.063 2.281 6.597 6.597 0 0 1-4.063 1.407c-.28 0-.53-.032-.78-.063 1.437.938 3.156 1.469 5.03 1.469 6.032 0 9.313-4.969 9.313-9.313v-.437Z" fill="#191919" fill-rule="evenodd" data-name=""/></svg>